<svg width="512" height="512" viewBox="0 0 512 512" fill="none" xmlns="http://www.w3.org/2000/svg">
<path d="M320 96H192L144.6 24.9C137.5 14.2 145.1 0 157.9 0H354.1C366.9 0 374.5 14.2 367.4 24.9L320 96ZM192 128H320C323.8 130.5 328.1 133.3 333 136.4C389.7 172.7 512 250.9 512 416C512 469 469 512 416 512H96C43 512 0 469 0 416C0 250.9 122.3 172.7 179 136.4C183.8 133.3 188.2 130.5 192 128ZM276 216C276 205 267 196 256 196C245 196 236 205 236 216V230C228.4 231.7 220.8 234.4 213.8 238.5C199.9 246.8 187.9 261.3 188 282.4C188.1 302.7 200 315.5 212.7 323.1C223.7 329.7 237.4 333.9 248.3 337.1L250 337.6C262.6 341.4 271.8 344.4 278 348.3C283.1 351.5 283.8 353.7 283.9 356.5C284 361.5 282.1 364.5 278 367C273 370.1 265.1 372 256.6 371.7C245.5 371.3 235.1 367.8 221.5 363.2C219.2 362.4 216.8 361.6 214.3 360.8C203.8 357.3 192.5 363 189 373.4C185.5 383.8 191.2 395.2 201.6 398.7C203.5 399.3 205.6 400 207.7 400.8C216 403.7 225.6 407 235.9 409.2V424C235.9 435 244.9 444 255.9 444C266.9 444 275.9 435 275.9 424V410.2C283.9 408.5 291.9 405.7 299.1 401.2C313.4 392.3 324.2 377.1 323.9 356.2C323.6 335.9 312.2 322.8 299.3 314.6C287.8 307.4 273.4 303 262.2 299.6L261.5 299.4C248.7 295.5 239.6 292.7 233.2 288.9C228 285.8 227.9 284 227.9 282.2C227.9 278.5 229.3 275.7 234.1 272.9C239.5 269.7 247.7 267.8 255.6 267.9C265.2 268 275.8 270.1 286.8 273.1C297.5 275.9 308.4 269.6 311.3 258.9C314.2 248.2 307.8 237.3 297.1 234.4C290.6 232.7 283.4 231 276 229.7V216Z" fill="black"/>
</svg>
